<?xml version="1.0" encoding="UTF-8" standalone="no"?>
<!-- Created with Inkscape (http://www.inkscape.org/) -->

<svg
   width="210mm"
   height="297mm"
   viewBox="0 0 210 297"
   version="1.1"
   id="svg1"
   xmlns="http://www.w3.org/2000/svg"
   xmlns:svg="http://www.w3.org/2000/svg">
  <defs
     id="defs1" />
  <g
     id="layer1">
    <path
       fill="#6d757d"
       d="m 154.89894,51.734538 c 4.53519,19.083646 5.12762,46.620752 -4.63767,59.595652 9.31926,3.75695 40.24677,16.32417 40.24677,16.32417 2.69911,-11.54785 1.78529,-50.668927 -35.6091,-75.919822 M 127.10931,100.4886 H 94.609014 L 59.512092,172.20705 H 86.233425 L 58.970673,245.26547 137.25525,144.27702 H 111.34572 Z M 55.108318,51.734538 c -37.401261,25.250895 -38.3157,64.371972 -35.616365,75.919822 0,0 30.934965,-12.56722 40.246777,-16.32417 -9.765513,-12.9749 -9.18015,-40.512006 -4.630412,-59.595652"
       id="path1"
       style="stroke-width:1.4203" />
  </g>
  <g
     id="g4"
     style="display:inline">
    <path
       id="path4"
       style="font-weight:bold;font-size:12px;font-family:Arial;-inkscape-font-specification:'Arial, Bold';white-space:pre;display:inline;fill:#2b2200;stroke-width:6.43152"
       d="m 104.70263,50.172957 -9.760151,12.167196 c 0,0 -3.241098,1.921673 -5.200716,0.791141 -1.934472,-1.130468 -4.233096,-1.695476 -6.896194,-1.695476 -4.823637,0 -8.868674,1.808799 -12.134663,5.426527 -3.240905,3.592581 -4.861197,8.604275 -4.861197,15.035791 0,6.833486 1.733744,12.247858 5.200717,16.242408 2.939396,3.416746 6.682538,5.125276 11.229813,5.125276 2.386671,0 4.610304,-0.51516 6.670383,-1.54511 2.060079,-1.05515 3.780702,-2.47491 5.162513,-4.25869 v 68.27802 l 10.589495,13.25831 z m 1.30019,0 V 178.99835 l 10.58956,-13.25831 V 97.46202 c 1.38181,1.78378 3.10237,3.20354 5.16245,4.25869 2.06008,1.03007 4.28371,1.54511 6.67038,1.54511 4.54727,0 8.29042,-1.70853 11.22981,-5.125276 3.46698,-3.99455 5.20072,-9.408922 5.20072,-16.242408 0,-6.431516 -1.62029,-11.44321 -4.8612,-15.035791 -3.26599,-3.617728 -7.31102,-5.426527 -12.13466,-5.426527 -2.6631,0 -4.96172,0.56533 -6.89619,1.695476 -1.95962,1.130532 -5.20072,-0.791141 -5.20072,-0.791141 z M 85.671771,69.726235 c 2.512343,0 4.597312,1.004989 6.255421,3.014837 1.683256,1.984702 2.524884,5.024237 2.524884,9.119311 0,4.321143 -0.916748,7.574911 -2.750695,9.760662 -1.834011,2.185751 -3.969403,3.278337 -6.406369,3.278337 -2.436965,0 -4.484632,-0.967043 -6.142741,-2.901579 -1.658109,-1.959618 -2.487196,-5.137816 -2.487196,-9.534336 0,-4.421668 0.854299,-7.64971 2.562638,-9.684706 1.733487,-2.034996 3.881484,-3.052526 6.444058,-3.052526 z m 39.361909,0 c 2.56257,0 4.71057,1.017594 6.44406,3.052526 1.70833,2.03506 2.56263,5.263038 2.56263,9.684706 0,4.39652 -0.82908,7.574718 -2.48719,9.534336 -1.65811,1.934536 -3.70578,2.901579 -6.14274,2.901579 -2.43697,0 -4.57236,-1.092586 -6.40637,-3.278337 -1.83395,-2.185751 -2.7507,-5.439519 -2.7507,-9.760662 0,-4.095074 0.84163,-7.134609 2.52489,-9.119311 1.65811,-2.009848 3.74307,-3.014837 6.25542,-3.014837 z" />
  </g>
</svg>
