<svg xmlns="http://www.w3.org/2000/svg" width="173" height="197" viewBox="0 0 172.51 196.6">
  <path fill="#8090a0"
    d="m136.4 2.56c4.54 19.08 5.13 46.62-4.64 59.6 9.32 3.76 40.25 16.32 40.25 16.32 2.7-11.55 1.78-50.67-35.61-75.92M108.61 51.32H76.11L41.01 123.04h26.72L40.47 196.1l78.28-101-25.91.01zM36.61 2.56c-37.4 25.25-38.32 64.37-35.62 75.92 0 0 30.94-12.57 40.25-16.32-9.77-12.98-9.18-40.51-4.63-59.6"
    style="stroke-width:1.42" />
  <path fill="#f0e8d0"
    d="m86.2 1-9.76 12.17s-3.24 1.92-5.2.79c-1.93-1.13-4.23-1.7-6.9-1.7-4.82 0-8.87 1.81-12.13 5.43-3.24 3.59-4.86 8.6-4.86 15.04 0 6.83 1.73 12.25 5.2 16.24 2.94 3.42 6.68 5.13 11.23 5.13 2.39 0 4.61-.52 6.67-1.55 2.06-1.05 3.78-2.47 5.16-4.26v68.28l10.59 13.26zm1.3 0v128.83l10.59-13.26V48.29c1.38 1.78 3.1 3.2 5.16 4.26 2.06 1.03 4.28 1.55 6.67 1.55 4.55 0 8.29-1.71 11.23-5.13 3.47-3.99 5.2-9.41 5.2-16.24 0-6.43-1.62-11.44-4.86-15.04-3.27-3.62-7.31-5.43-12.13-5.43-2.66 0-4.96.57-6.9 1.7-1.96 1.13-5.2-.79-5.2-.79zM67.17 20.56c2.51 0 4.6 1 6.26 3.01 1.68 1.99 2.52 5.03 2.52 9.12 0 4.32-.92 7.58-2.75 9.76-1.83 2.19-3.97 3.28-6.41 3.28-2.44 0-4.48-.97-6.14-2.9-1.66-1.96-2.49-5.14-2.49-9.54 0-4.42.85-7.65 2.56-9.68 1.73-2.04 3.88-3.05 6.45-3.05zm39.36 0c2.56 0 4.71 1.01 6.44 3.05 1.71 2.03 2.56 5.26 2.56 9.68 0 4.4-.83 7.58-2.49 9.54-1.66 1.93-3.7 2.9-6.14 2.9-2.44 0-4.57-1.09-6.41-3.28-1.83-2.18-2.75-5.44-2.75-9.76 0-4.09.84-7.13 2.52-9.12 1.66-2.01 3.75-3.01 6.26-3.01z" />
</svg>